<svg height="800" version="1.1" width="600" xmlns="http://www.w3.org/2000/svg" xmlns:xlink="http://www.w3.org/1999/xlink" style="overflow: hidden; position: relative;"><desc style="-webkit-tap-highlight-color: rgba(0, 0, 0, 0);">Created with Raphaël 2.1.4</desc><defs style="-webkit-tap-highlight-color: rgba(0, 0, 0, 0);"><linearGradient id="0270-rgb_0_255_255_-white" x1="1.8369701987210297e-16" y1="0" x2="0" y2="1" gradientTransform="matrix(1,0,0,1,0,0)" style="-webkit-tap-highlight-color: rgba(0, 0, 0, 0);"><stop offset="0%" stop-color="#00ffff" stop-opacity="1" style="-webkit-tap-highlight-color: rgba(0, 0, 0, 0);"></stop><stop offset="100%" stop-color="#ffffff" stop-opacity="1" style="-webkit-tap-highlight-color: rgba(0, 0, 0, 0);"></stop></linearGradient><linearGradient id="1270-rgb_192_64_64_-white" x1="1.8369701987210297e-16" y1="0" x2="0" y2="1" gradientTransform="matrix(1,0,0,1,0,0)" style="-webkit-tap-highlight-color: rgba(0, 0, 0, 0);"><stop offset="0%" stop-color="#c04040" stop-opacity="1" style="-webkit-tap-highlight-color: rgba(0, 0, 0, 0);"></stop><stop offset="100%" stop-color="#ffffff" stop-opacity="1" style="-webkit-tap-highlight-color: rgba(0, 0, 0, 0);"></stop></linearGradient></defs><rect x="20" y="160" width="140" height="300" rx="0" ry="0" fill="url('file:///C:/Users/Tomasz/Development/Web/engine-sim/index.html#0270-rgb_0_255_255_-white')" stroke="#000" style="-webkit-tap-highlight-color: rgba(0, 0, 0, 0); opacity: 1; fill-opacity: 1;" opacity="1" fill-opacity="1" stroke-width="0"></rect><rect x="440" y="160" width="140" height="300" rx="0" ry="0" fill="url('file:///C:/Users/Tomasz/Development/Web/engine-sim/index.html#1270-rgb_192_64_64_-white')" stroke="#000" opacity="1" fill-opacity="1" stroke-width="0" style="-webkit-tap-highlight-color: rgba(0, 0, 0, 0); opacity: 1; fill-opacity: 1;"></rect><rect x="60" y="122.5" width="480" height="37.5" rx="0" ry="0" fill="#00ffff" stroke="#000" stroke-width="0" style="-webkit-tap-highlight-color: rgba(0, 0, 0, 0);"></rect><rect x="200" y="160" width="200" height="0" rx="0" ry="0" fill="#00ffff" stroke="#000" stroke-width="0" style="-webkit-tap-highlight-color: rgba(0, 0, 0, 0);"></rect><rect x="20" y="82.5" width="560" height="40" rx="0" ry="0" fill="#a9a9a9" stroke="#000" style="-webkit-tap-highlight-color: rgba(0, 0, 0, 0);" stroke-width="0"></rect><rect x="160" y="160" width="40" height="300" rx="0" ry="0" fill="#a9a9a9" stroke="#000" style="-webkit-tap-highlight-color: rgba(0, 0, 0, 0);" stroke-width="0"></rect><rect x="400" y="160" width="40" height="300" rx="0" ry="0" fill="#a9a9a9" stroke="#000" style="-webkit-tap-highlight-color: rgba(0, 0, 0, 0);" stroke-width="0"></rect><rect x="20" y="82.5" width="40" height="327.5" rx="0" ry="0" fill="#a9a9a9" stroke="#000" style="-webkit-tap-highlight-color: rgba(0, 0, 0, 0);" stroke-width="0"></rect><rect x="540" y="82.5" width="40" height="327.5" rx="0" ry="0" fill="#a9a9a9" stroke="#000" style="-webkit-tap-highlight-color: rgba(0, 0, 0, 0);" stroke-width="0"></rect><path fill="#a9a9a9" stroke="#000000" d="M60,160L76.66666666666667,160L85,176.66666666666666L60,176.66666666666666Z" style="-webkit-tap-highlight-color: rgba(0, 0, 0, 0);" stroke-width="0"></path><path fill="#a9a9a9" stroke="#000000" d="M160,160L143.33333333333334,160L135,176.66666666666666L160,176.66666666666666Z" style="-webkit-tap-highlight-color: rgba(0, 0, 0, 0);" stroke-width="0"></path><path fill="#a9a9a9" stroke="#000000" d="M440,160L456.6666666666667,160L465,176.66666666666666L440,176.66666666666666Z" style="-webkit-tap-highlight-color: rgba(0, 0, 0, 0);" stroke-width="0"></path><path fill="#a9a9a9" stroke="#000000" d="M540,160L523.3333333333334,160L515,176.66666666666666L540,176.66666666666666Z" style="-webkit-tap-highlight-color: rgba(0, 0, 0, 0);" stroke-width="0"></path><path fill="#444444" stroke="#000000" d="M76.66666666666667,160L143.33333333333331,160L134.99999999999997,176.66666666666666Q118.3333333333333,176.66666666666666,118.3333333333333,476.66666666666663L101.66666666666663,476.66666666666663Q101.66666666666663,176.66666666666663,84.99999999999996,176.66666666666663Z" style="-webkit-tap-highlight-color: rgba(0, 0, 0, 0);" transform="matrix(1,0,0,1,0,0)"></path><path fill="#444444" stroke="#000000" d="M456.6666666666667,160L523.3333333333334,160L515,176.66666666666666Q498.3333333333333,176.66666666666666,498.3333333333333,476.66666666666663L481.66666666666663,476.66666666666663Q481.66666666666663,176.66666666666663,464.99999999999994,176.66666666666663Z" style="-webkit-tap-highlight-color: rgba(0, 0, 0, 0);" transform="matrix(1,0,0,1,0,0)"></path><rect x="20" y="460" width="180" height="40" rx="0" ry="0" fill="#a9a9a9" stroke="#000" stroke-width="0" style="-webkit-tap-highlight-color: rgba(0, 0, 0, 0);"></rect><rect x="400" y="460" width="180" height="40" rx="0" ry="0" fill="#a9a9a9" stroke="#000" stroke-width="0" style="-webkit-tap-highlight-color: rgba(0, 0, 0, 0);"></rect><rect x="160" y="62.5" width="20" height="20" rx="0" ry="0" fill="#a9a9a9" stroke="#000" stroke-width="0" style="-webkit-tap-highlight-color: rgba(0, 0, 0, 0);"></rect><rect x="200" y="62.5" width="20" height="20" rx="0" ry="0" fill="#a9a9a9" stroke="#000" stroke-width="0" style="-webkit-tap-highlight-color: rgba(0, 0, 0, 0);"></rect><rect x="240" y="62.5" width="20" height="20" rx="0" ry="0" fill="#a9a9a9" stroke="#000" stroke-width="0" style="-webkit-tap-highlight-color: rgba(0, 0, 0, 0);"></rect><rect x="280" y="62.5" width="20" height="20" rx="0" ry="0" fill="#a9a9a9" stroke="#000" stroke-width="0" style="-webkit-tap-highlight-color: rgba(0, 0, 0, 0);"></rect><rect x="320" y="62.5" width="20" height="20" rx="0" ry="0" fill="#a9a9a9" stroke="#000" stroke-width="0" style="-webkit-tap-highlight-color: rgba(0, 0, 0, 0);"></rect><rect x="360" y="62.5" width="20" height="20" rx="0" ry="0" fill="#a9a9a9" stroke="#000" stroke-width="0" style="-webkit-tap-highlight-color: rgba(0, 0, 0, 0);"></rect><rect x="400" y="62.5" width="20" height="20" rx="0" ry="0" fill="#a9a9a9" stroke="#000" stroke-width="0" style="-webkit-tap-highlight-color: rgba(0, 0, 0, 0);"></rect><path fill="#444444" stroke="#000000" d="M300,235L320,235L330,535A30,30,0,0,1,270,535L280,235Z" transform="matrix(1,0,0,1,0,0)" style="-webkit-tap-highlight-color: rgba(0, 0, 0, 0);"></path><rect x="200" y="160" width="200" height="150" rx="0" ry="0" fill="#808080" stroke="#000000" style="-webkit-tap-highlight-color: rgba(0, 0, 0, 0);" transform="matrix(1,0,0,1,0,0)"></rect><path fill="#a9a9a9" stroke="#000000" d="M250,610L270,535A30,30,0,0,1,330,535L350,610A50,50,0,0,1,250,610Z" transform="matrix(1,0,0,1,0,0)" style="-webkit-tap-highlight-color: rgba(0, 0, 0, 0);"></path><rect x="280" y="50" width="40" height="80" rx="5" ry="5" fill="#eeeeee" stroke="#000" style="-webkit-tap-highlight-color: rgba(0, 0, 0, 0);"></rect><path fill="none" stroke="#000000" d="M285,130L285,140L300,140L285,140Z" style="-webkit-tap-highlight-color: rgba(0, 0, 0, 0);"></path><path fill="none" stroke="#000000" d="M315,130L315,135L300,135L315,135Z" style="-webkit-tap-highlight-color: rgba(0, 0, 0, 0);"></path></svg>